<svg width="22" height="22" viewBox="0 0 22 22" fill="none" xmlns="http://www.w3.org/2000/svg">
<path d="M18.3331 14.4833C19.4451 12.6603 19.9162 10.518 19.6714 8.39668C19.4511 6.438 18.5567 4.61684 17.1414 3.24501C15.8975 1.99074 14.2971 1.15052 12.5583 0.83885C10.8195 0.527179 9.02687 0.759218 7.42473 1.50335C5.91183 2.14265 4.61661 3.2067 3.69582 4.56675C2.77502 5.9268 2.2681 7.52455 2.2364 9.16668C2.16934 10.9072 2.59172 12.6317 3.45557 14.1442C4.51784 16.0369 5.93376 17.708 7.6264 19.0667C8.0389 19.4242 8.4789 19.745 8.95557 20.1025H6.20557C6.09582 20.0967 5.98657 20.1209 5.88954 20.1725C5.7925 20.2241 5.71136 20.3012 5.65482 20.3954C5.59828 20.4896 5.56847 20.5975 5.5686 20.7074C5.56873 20.8173 5.5988 20.9251 5.65557 21.0192C5.74901 21.1579 5.88369 21.2637 6.04057 21.3217H15.9497C16.3347 21.1292 16.4722 20.8908 16.3897 20.57C16.3072 20.2492 16.0781 20.1117 15.6656 20.1117H13.0439L13.7406 19.5892C15.5891 18.2023 17.1491 16.4679 18.3331 14.4833ZM11.1189 19.9833C11.0792 20.0131 11.031 20.0292 10.9814 20.0292C10.9318 20.0292 10.8836 20.0131 10.8439 19.9833C8.77769 18.7079 6.96571 17.0607 5.49973 15.125C4.55203 13.9147 3.89359 12.5038 3.57473 11C3.4891 10.5651 3.44308 10.1233 3.43723 9.68001C3.43173 7.83358 4.10194 6.04893 5.32148 4.66255C6.54103 3.27618 8.22565 2.38387 10.0577 2.15388C11.8898 1.92388 13.7427 2.37209 15.2671 3.414C16.7915 4.45591 17.882 6.01952 18.3331 7.81001C18.7405 9.77944 18.4145 11.8299 17.4164 13.5758C16.5954 15.0741 15.5189 16.4173 14.2356 17.545C13.2801 18.4367 12.2462 19.2405 11.1464 19.9467L11.1189 19.9833Z" fill="#6E6B7B"/>
<path d="M11.0004 3.14419C9.7541 3.14056 8.53475 3.50682 7.49672 4.19659C6.45869 4.88636 5.64868 5.86862 5.16922 7.01901C4.68976 8.16941 4.56243 9.4362 4.80335 10.659C5.04427 11.8818 5.6426 13.0056 6.52258 13.8882C7.40257 14.7707 8.52464 15.3723 9.74673 15.6168C10.9688 15.8613 12.236 15.7377 13.3878 15.2616C14.5396 14.7855 15.5242 13.9783 16.217 12.9423C16.9098 11.9063 17.2796 10.688 17.2796 9.44169C17.2796 7.77466 16.6186 6.17564 15.4416 4.99516C14.2645 3.81467 12.6674 3.14904 11.0004 3.14419ZM11.0004 14.5292C9.9916 14.531 9.00495 14.2334 8.16541 13.6741C7.32586 13.1147 6.67119 12.3188 6.2843 11.3872C5.89741 10.4555 5.7957 9.42998 5.99207 8.44047C6.18843 7.45096 6.67403 6.54198 7.38736 5.82865C8.10069 5.11531 9.00967 4.62972 9.99918 4.43335C10.9887 4.23699 12.0142 4.33869 12.9459 4.72558C13.8776 5.11247 14.6735 5.76715 15.2328 6.60669C15.7921 7.44624 16.0897 8.43289 16.0879 9.44169C16.0831 10.7895 15.5455 12.0807 14.5925 13.0338C13.6394 13.9868 12.3482 14.5244 11.0004 14.5292Z" fill="#6E6B7B"/>
<path d="M8.25004 9.79914C8.25004 9.03831 8.25004 8.26831 8.25004 7.50748C8.24451 7.36169 8.29438 7.21921 8.3896 7.10867C8.48483 6.99814 8.61837 6.92775 8.76337 6.91164C8.89598 6.89163 9.03147 6.91693 9.14792 6.98347C9.26436 7.05001 9.35495 7.1539 9.40504 7.27831C9.4226 7.36914 9.4226 7.46248 9.40504 7.55331V12.0358C9.41621 12.1888 9.36972 12.3404 9.27472 12.4609C9.17972 12.5813 9.04309 12.6619 8.8917 12.6866C8.75149 12.7109 8.60724 12.6833 8.48582 12.6091C8.3644 12.5349 8.27409 12.4191 8.2317 12.2833C8.21313 12.1864 8.21313 12.0869 8.2317 11.99V9.79914H8.25004Z" fill="#6E6B7B"/>
<path d="M12.8332 6.92082C12.3565 6.92082 11.9165 6.92082 11.4032 6.92082C11.3112 6.9088 11.2178 6.91806 11.13 6.9479C11.0422 6.97774 10.9625 7.02736 10.8969 7.09291C10.8314 7.15847 10.7818 7.23821 10.7519 7.32599C10.7221 7.41376 10.7128 7.50722 10.7248 7.59915C10.7248 8.33248 10.7248 9.07498 10.7248 9.80832C10.7248 10.5417 10.7248 11.3025 10.7248 12.045C10.7143 12.1301 10.722 12.2164 10.7473 12.2983C10.7727 12.3802 10.8152 12.4557 10.8719 12.52C10.9287 12.5842 10.9985 12.6356 11.0766 12.6709C11.1548 12.7061 11.2395 12.7243 11.3252 12.7243C11.411 12.7243 11.4957 12.7061 11.5739 12.6709C11.652 12.6356 11.7218 12.5842 11.7786 12.52C11.8353 12.4557 11.8778 12.3802 11.9032 12.2983C11.9285 12.2164 11.9362 12.1301 11.9257 12.045C11.9257 11.6417 11.9257 11.2475 11.9257 10.8533C11.9257 10.7525 11.9257 10.7158 12.0632 10.7158C12.3287 10.7341 12.5951 10.7341 12.8607 10.7158C13.327 10.6697 13.7596 10.4518 14.0742 10.1045C14.3889 9.75719 14.5632 9.30529 14.5632 8.83665C14.5632 8.36801 14.3889 7.91611 14.0742 7.5688C13.7596 7.2215 13.327 7.0036 12.8607 6.95748L12.8332 6.92082ZM12.604 9.49665H12.0357C11.944 9.49665 11.9257 9.49665 11.9257 9.37748C11.9257 9.25832 11.9257 8.99248 11.9257 8.79998C11.9257 8.60748 11.9257 8.46082 11.9257 8.29582C11.9257 8.13082 11.9257 8.08498 12.109 8.10332C12.2678 8.11248 12.4269 8.11248 12.5857 8.10332C12.6784 8.10088 12.7706 8.11673 12.8572 8.14996C12.9438 8.1832 13.023 8.23317 13.0902 8.29702C13.1575 8.36086 13.2115 8.43733 13.2492 8.52206C13.2868 8.60679 13.3075 8.69812 13.3098 8.79082C13.3074 8.97885 13.231 9.15837 13.0972 9.29048C12.9634 9.4226 12.7829 9.49667 12.5948 9.49665H12.604Z" fill="#6E6B7B"/>
</svg>
