<svg id="Layer_1" data-name="Layer 1" xmlns="http://www.w3.org/2000/svg" viewBox="0 0 6785.16 3226.47"><defs><style>.cls-1{fill:#09332c;}</style></defs><path class="cls-1" d="M2525,1890.53H2140.78v-209a98.32,98.32,0,0,0-196.64,0v209H1643a98.32,98.32,0,1,0,0,196.64h301.12v154.65h196.64V2087.17H2525c81,0,146.91,66,146.91,147s-65.87,147-146.91,147H472.88c-81,0-147-66-147-147s66-147,147-147h537.39c215.17,0,390.31-175.13,390.31-390.35V1404.75c-33.33,42.62-84.62,70.55-142.8,70.55h-53.84v221.52c0,106.81-86.9,193.71-193.67,193.71H472.88c-189.44,0-343.64,154.15-343.64,343.64s154.2,343.64,343.64,343.64H1944.14v306.91c0,68.17-55.5,123.62-123.67,123.62s-123.67-55.45-123.67-123.62V2717.16H1500.16v167.56c0,176.57,143.74,320.26,320.31,320.26s320.31-143.69,320.31-320.26V2577.81H2525c189.44,0,343.55-154.16,343.55-343.64S2714.45,1890.53,2525,1890.53Z"/><path class="cls-1" d="M375.82,1335.94H760.06v209a98.32,98.32,0,1,0,196.64,0v-209h301.12a98.32,98.32,0,1,0,0-196.64H956.7v-294H2427.87c81,0,147,66,147,147s-66,147-147,147H1890.56c-215.26,0-390.4,175.14-390.4,390.36v292.11c33.33-42.64,84.64-70.59,142.84-70.59h53.8V1529.66c0-106.82,86.9-193.72,193.76-193.72h537.31c189.43,0,343.63-154.15,343.63-343.64s-154.2-343.64-343.63-343.64H956.7V341.75c0-68.17,55.49-123.62,123.67-123.62a123.71,123.71,0,0,1,123.57,123.62V509.31h196.64V341.75c0-176.57-143.64-320.26-320.21-320.26S760.06,165.18,760.06,341.75V1139.3H375.82c-81,0-147-66-147-147s66-147,147-147H620.69V648.66H375.82c-189.44,0-343.64,154.16-343.64,343.64S186.38,1335.94,375.82,1335.94Z"/><path class="cls-1" d="M3784.53,907.37v172.38H3685l-5.33-72.42H3560.62v455.81l69.31,13.33v77.74H3361.59v-77.74l69.31-13.33V1007.33H3312.3l-5.33,72.42h-99.09V907.37Z"/><path class="cls-1" d="M4104.05,1476.47l46.21-6.67L4347,907.37H4479.9l195.47,562.43,46.2,6.67v77.74H4501.22v-77.74l44.85-8-28.43-88.85H4308l-28.44,88.85,44.9,8v77.74H4104.05Zm234.57-192.36H4487l-72.85-227.91h-2.67Z"/><path class="cls-1" d="M5128.13,1476.47l68.88-13.33V998.89l-68.88-13.33V907.37h264.35v78.19l-65.75,13.33v172.82h56.4l124.4-180.81-38.21-5.34V907.37h256.31v78.19l-70.15,12L5496.4,1209.91,5675,1465.36l64.82,11.11v77.74H5483.54v-77.74l40-5.33-124.39-187h-72.4v179l65.75,13.33v77.74H5128.13Z"/><path class="cls-1" d="M6135.79,1476.47l46.2-6.67,196.83-562.43h132.85l195.48,562.43,46.2,6.67v77.74H6533v-77.74l44.85-8-28.44-88.85H6339.72l-28.43,88.85,44.85,8v77.74H6135.79Zm234.57-192.36h148.42l-72.86-227.91h-2.7Z"/><path class="cls-1" d="M3769.17,2305.28V2025.53h-77.68a9,9,0,0,1-9.06-9.06v-26.69a8.67,8.67,0,0,1,2.63-6.44,8.78,8.78,0,0,1,6.43-2.62h204.9a9,9,0,0,1,6.48,2.62,8.82,8.82,0,0,1,2.58,6.44v26.69a8.75,8.75,0,0,1-2.58,6.43,8.87,8.87,0,0,1-6.48,2.63h-77.68v279.75a8.88,8.88,0,0,1-2.62,6.2,8.35,8.35,0,0,1-6.43,2.86h-31.44a8.36,8.36,0,0,1-6.43-2.86A9.1,9.1,0,0,1,3769.17,2305.28Z"/><path class="cls-1" d="M4052.27,2305.28v-315.5a8.95,8.95,0,0,1,9.05-9.06h190.61a8.95,8.95,0,0,1,9,9.06v26.69a8.78,8.78,0,0,1-2.62,6.43,8.69,8.69,0,0,1-6.43,2.63H4101.35v97.23h127.22a9.8,9.8,0,0,1,9.06,9v26.68a8.58,8.58,0,0,1-2.63,6.43,8.7,8.7,0,0,1-6.43,2.62H4101.35V2270h150.58a8.68,8.68,0,0,1,6.43,2.62,8.83,8.83,0,0,1,2.62,6.43v26.21a8.78,8.78,0,0,1-2.62,6.43,8.69,8.69,0,0,1-6.43,2.63H4061.32a9,9,0,0,1-9.05-9.06Z"/><path class="cls-1" d="M4398.7,2301l98.2-157.75-94.39-149.17c-1.9-3.17-2.07-6.2-.47-9s4.45-4.3,8.59-4.3h40.49q5.72,0,8.13,4.3l67.19,113.89h.46L4595.06,1985a8.09,8.09,0,0,1,7.62-4.3h40.53c4.11,0,7,1.44,8.55,4.3s1.44,5.88-.47,9l-94.35,149.17,97.7,157.75c1.9,3.19,2.07,6.2.46,9.05s-4.44,4.3-8.55,4.3h-36.72c-3.81,0-6.52-1.44-8.08-4.3l-74.85-122H4526l-73.87,122c-2.25,2.86-5,4.3-8.13,4.3h-36.68c-4.15,0-7.06-1.44-8.8-4.3S4396.8,2304.18,4398.7,2301Z"/><path class="cls-1" d="M4859.08,2305.28V2025.53H4781.4a9,9,0,0,1-9.06-9.06v-26.69a8.67,8.67,0,0,1,2.63-6.44,8.78,8.78,0,0,1,6.43-2.62h204.91a9,9,0,0,1,6.47,2.62,8.82,8.82,0,0,1,2.58,6.44v26.69a8.75,8.75,0,0,1-2.58,6.43,8.86,8.86,0,0,1-6.47,2.63h-77.69v279.75a8.88,8.88,0,0,1-2.62,6.2,8.35,8.35,0,0,1-6.43,2.86h-31.44a8.38,8.38,0,0,1-6.43-2.86A9.1,9.1,0,0,1,4859.08,2305.28Z"/><path class="cls-1" d="M5142.18,2305.28v-315.5a8.87,8.87,0,0,1,2.62-6.18,8.24,8.24,0,0,1,6.43-2.88h31.44a8.31,8.31,0,0,1,6.43,2.88,9.09,9.09,0,0,1,2.62,6.18v315.5a9.1,9.1,0,0,1-2.62,6.2,8.36,8.36,0,0,1-6.43,2.86h-31.44a8.29,8.29,0,0,1-6.43-2.86A8.88,8.88,0,0,1,5142.18,2305.28Z"/><path class="cls-1" d="M5379.54,2305.28v-315.5a8.95,8.95,0,0,1,9.05-9.06H5420a8.31,8.31,0,0,1,6.43,2.88,9.09,9.09,0,0,1,2.62,6.18V2270h129.17a8.95,8.95,0,0,1,9.06,9.05v26.21a9,9,0,0,1-9.06,9.06H5388.59a9,9,0,0,1-9.05-9.06Z"/><path class="cls-1" d="M5712.65,2305.28v-315.5a8.95,8.95,0,0,1,9.05-9.06h190.61a8.95,8.95,0,0,1,9,9.06v26.69a8.78,8.78,0,0,1-2.62,6.43,8.69,8.69,0,0,1-6.43,2.63H5761.73v97.23H5889a9.8,9.8,0,0,1,9.06,9v26.68a8.58,8.58,0,0,1-2.63,6.43,8.7,8.7,0,0,1-6.43,2.62H5761.73V2270h150.58a8.68,8.68,0,0,1,6.43,2.62,8.83,8.83,0,0,1,2.62,6.43v26.21a8.78,8.78,0,0,1-2.62,6.43,8.69,8.69,0,0,1-6.43,2.63H5721.7a9,9,0,0,1-9.05-9.06Z"/><path class="cls-1" d="M6070,2281.46q-7.62-6.69-2.83-15.25,1.89-2.85,6-9.77a73.32,73.32,0,0,1,6.43-9.78c5.08-7.3,10.45-8.57,16.21-3.81q39.52,32.88,76.24,32.88,24.3,0,39.05-12.86t14.81-31.46q0-20.47-17.39-35.73t-54.58-30.51q-42-17.64-64.35-40.28t-22.38-60.75a78.39,78.39,0,0,1,6-29.56,101.53,101.53,0,0,1,17.6-28.35q11.68-13.57,32.66-21.93t48.15-8.34q48.1,0,88.14,28.12c6.39,4.14,7.32,9.54,2.87,16.2q-1.91,2.87-6,9.06t-6,9.05q-6.66,11-16.67,4.78-42-23.84-64.35-23.84-27.17,0-40.49,13.35t-13.33,29.55q0,19.55,14.76,33.36t45.74,26.68q49.58,20,76,43.62T6278.8,2229q0,37.67-30.25,63.87t-76,26.21a153.14,153.14,0,0,1-50.77-8.57q-24.49-8.59-34.78-15.74A158.35,158.35,0,0,1,6070,2281.46Z"/></svg>