<svg id="Layer_1" data-name="Layer 1" xmlns="http://www.w3.org/2000/svg" viewBox="0 0 2900.74 3226.47"><defs><style>.cls-1{fill:#09332c;}</style></defs><path class="cls-1" d="M2525,1890.53H2140.78v-209a98.32,98.32,0,0,0-196.64,0v209H1643a98.32,98.32,0,1,0,0,196.64h301.12v154.65h196.64V2087.17H2525c81,0,146.91,66,146.91,147s-65.87,147-146.91,147H472.88c-81,0-147-66-147-147s66-147,147-147h537.39c215.17,0,390.31-175.13,390.31-390.35V1404.75c-33.33,42.62-84.62,70.55-142.8,70.55h-53.84v221.52c0,106.81-86.9,193.71-193.67,193.71H472.88c-189.44,0-343.64,154.15-343.64,343.64s154.2,343.64,343.64,343.64H1944.14v306.91c0,68.17-55.5,123.62-123.67,123.62s-123.67-55.45-123.67-123.62V2717.16H1500.16v167.56c0,176.57,143.74,320.26,320.31,320.26s320.31-143.69,320.31-320.26V2577.81H2525c189.44,0,343.55-154.16,343.55-343.64S2714.45,1890.53,2525,1890.53Z"/><path class="cls-1" d="M375.82,1335.94H760.06v209a98.32,98.32,0,1,0,196.64,0v-209h301.12a98.32,98.32,0,1,0,0-196.64H956.7v-294H2427.87c81,0,147,66,147,147s-66,147-147,147H1890.56c-215.26,0-390.4,175.14-390.4,390.36v292.11c33.33-42.64,84.64-70.59,142.84-70.59h53.8V1529.66c0-106.82,86.9-193.72,193.76-193.72h537.31c189.43,0,343.63-154.15,343.63-343.64s-154.2-343.64-343.63-343.64H956.7V341.75c0-68.17,55.49-123.62,123.67-123.62a123.71,123.71,0,0,1,123.57,123.62V509.31h196.64V341.75c0-176.57-143.64-320.26-320.21-320.26S760.06,165.18,760.06,341.75V1139.3H375.82c-81,0-147-66-147-147s66-147,147-147H620.69V648.66H375.82c-189.44,0-343.64,154.16-343.64,343.64S186.38,1335.94,375.82,1335.94Z"/></svg>